<svg width="52" height="52" viewBox="0 0 52 52" fill="none" xmlns="http://www.w3.org/2000/svg">
<g clip-path="url(#clip0_55_596)">
<path d="M47.4309 52.0001C46.1744 51.7699 45.2549 51.0182 44.38 50.1356C40.2456 45.9679 36.0844 41.8257 31.936 37.672C31.805 37.541 31.7033 37.3807 31.5876 37.2332C26.1789 40.6175 20.4739 41.5421 14.4204 39.7272C9.81801 38.3473 6.13761 35.6104 3.47714 31.617C-2.22914 23.0616 -0.633112 12.3467 6.23299 5.73079C13.6434 -1.41036 25.0127 -1.97377 33.1277 4.58362C40.5991 10.6208 43.4096 21.9793 37.187 31.6488C37.3218 31.7263 37.5291 31.7963 37.669 31.9349C41.8263 36.081 45.9671 40.2423 50.1346 44.3769C51.0172 45.2519 51.7713 46.1714 52.0002 47.4292V48.4441C51.7319 49.0749 51.5386 49.7528 51.1787 50.3277C50.5619 51.3146 49.5445 51.7457 48.4457 51.9975H47.4309V52.0001ZM2.04389 20.2916C2.0032 30.3197 10.2084 38.5432 20.3073 38.5953C30.3006 38.6475 38.5592 30.4189 38.5961 20.373C38.633 10.3271 30.4532 2.10362 20.3607 2.0413C10.3483 1.98025 2.08459 10.2139 2.04389 20.2916ZM37.6131 40.4801C37.5851 40.4496 37.6385 40.5145 37.6983 40.5742C40.5813 43.4561 43.463 46.338 46.3473 49.2186C46.4669 49.3382 46.5915 49.4539 46.7263 49.5557C47.8544 50.4078 49.4758 49.8698 49.8751 48.5115C50.1346 47.6302 49.8128 46.9332 49.1935 46.3164C46.3308 43.4625 43.4745 40.6009 40.6156 37.7432C40.5368 37.6644 40.449 37.5944 40.3651 37.5206C40.3956 37.5664 40.4274 37.6122 40.4579 37.6593C39.5232 38.5864 38.5885 39.5123 37.6131 40.4801ZM36.1493 33.3911C35.2171 34.3132 34.2837 35.2365 33.3756 36.1344C34.1972 36.9522 35.1383 37.8895 36.1976 38.9451C37.0993 38.0421 38.0366 37.1035 38.9446 36.1942C37.8941 35.1398 36.9556 34.2 36.1493 33.3924V33.3911Z" fill="#6822BB"/>
<path d="M20.3439 4.07226C29.2905 4.10532 36.5967 11.4334 36.5636 20.3424C36.5305 29.2895 29.2028 36.5959 20.2943 36.5629C11.3476 36.5298 4.04151 29.2017 4.07457 20.2928C4.10764 11.3457 11.4354 4.03919 20.3439 4.07226ZM34.5326 20.3004C34.5123 12.4776 28.1015 6.08297 20.3006 6.10204C12.4782 6.12239 6.08392 12.5335 6.10299 20.3347C6.12334 28.1576 12.5342 34.5522 20.335 34.5331C28.1574 34.5127 34.5517 28.1016 34.5326 20.3004Z" fill="#FFBB39"/>
<path d="M20.7585 8.14195C25.4817 8.26913 29.9048 11.3787 31.6165 15.7753C31.8734 16.4366 31.6967 17 31.1574 17.2391C30.5915 17.4897 30.0472 17.234 29.7509 16.5498C28.3622 13.3423 25.9828 11.2922 22.5949 10.4414C21.9768 10.2862 21.3295 10.2239 20.6923 10.1806C19.7805 10.1183 19.2871 9.76731 19.3138 9.11488C19.3392 8.45736 19.8454 8.11779 20.7597 8.14195H20.7585Z" fill="#FFBB39"/>
<path d="M32.4955 20.3398C32.4815 20.8752 31.9969 21.3394 31.4666 21.3255C30.9312 21.3115 30.467 20.8269 30.481 20.2966C30.495 19.7611 30.9783 19.2982 31.5099 19.3109C32.0453 19.3249 32.5094 19.8095 32.4955 20.3398Z" fill="#6822BB"/>
</g>
<defs>
<clipPath id="clip0_55_596">
<rect width="52" height="52" fill="white"/>
</clipPath>
</defs>
</svg>
