<svg width="48" height="48" viewBox="0 0 48 48" fill="none" xmlns="http://www.w3.org/2000/svg">
<path d="M29.852 5.82199L16.548 12.21C15.5439 12.6994 14.4018 12.8279 13.314 12.574C12.855 12.4602 12.3912 12.3667 11.924 12.294C8.274 11.88 6 14.768 6 18.09V19.914C6 23.234 8.274 26.124 11.924 25.706C12.3917 25.6369 12.8557 25.5441 13.314 25.428C14.402 25.1747 15.5441 25.3039 16.548 25.794L29.852 32.18C32.906 33.646 34.434 34.38 36.136 33.808C37.84 33.236 38.424 32.01 39.592 29.558C41.1771 26.2648 42.0001 22.6568 42.0001 19.002C42.0001 15.3472 41.1771 11.7392 39.592 8.44599C38.424 5.99399 37.84 4.76599 36.136 4.19599C34.434 3.62399 32.906 4.35399 29.852 5.82199Z" stroke="#79DBC4" stroke-width="2" stroke-linecap="round" stroke-linejoin="round"/>
<path d="M15 25V13M22.916 41.54L19.934 44C13.21 38.668 14.032 36.126 14.032 26H16.3C17.22 31.72 19.39 34.432 22.386 36.394C24.23 37.602 24.61 40.144 22.916 41.54Z" stroke="#79DBC4" stroke-width="2" stroke-linecap="round" stroke-linejoin="round"/>
</svg>
