<svg width="42" height="30" viewBox="0 0 42 30" fill="none" xmlns="http://www.w3.org/2000/svg">
<g clip-path="url(#clip0_65_324)">
<path d="M0 3.20078C0.114701 2.84369 0.231566 2.48877 0.339774 2.15765C4.58371 6.3648 8.80383 10.546 13.0283 14.7336C8.78652 18.9343 4.56423 23.1133 0.328953 27.3096C0.242387 27.0542 0.121193 26.695 0 26.3336C0 18.6226 0 10.9117 0 3.20078Z" fill="#6822BB"/>
<path d="M2.22029 0.233722C2.76566 0.157976 3.31103 0.0173051 3.85857 0.0129767C7.26064 -0.00866494 10.6649 0.00215589 14.0691 0.00215589C22.0657 0.00215589 30.0601 -0.00217244 38.0567 0.0108126C38.6302 0.0108126 39.2038 0.147155 39.7773 0.220737C39.7837 0.270513 39.7924 0.318124 39.7989 0.3679C39.7145 0.463124 39.6366 0.560511 39.5479 0.651406C33.7392 6.47951 27.9306 12.3076 22.1198 18.1336C21.4186 18.8369 20.5854 18.8391 19.8864 18.1379C14.0756 12.3119 8.26698 6.48384 2.45835 0.655734C2.37179 0.569168 2.29171 0.478273 2.20947 0.389542C2.2138 0.337602 2.21597 0.285662 2.22029 0.233722Z" fill="#6822BB"/>
<path d="M39.7772 29.3028C39.2318 29.3786 38.6865 29.5192 38.1389 29.5214C34.9273 29.543 31.7157 29.5322 28.5041 29.5322C20.3192 29.5322 12.1321 29.5322 3.94726 29.5322C3.34346 29.5322 2.75697 29.4716 2.1748 29.1708C6.41441 24.9723 10.6259 20.802 14.8633 16.6035C14.9001 16.6381 15.0083 16.7333 15.1122 16.8351C16.1164 17.8414 17.1184 18.8499 18.1226 19.8541C19.8214 21.5551 22.1782 21.5529 23.8814 19.8541C24.9851 18.7547 26.091 17.6596 27.1493 16.6078C31.3629 20.7825 35.5809 24.9615 39.7967 29.1383C39.7902 29.1903 39.7837 29.2422 39.7772 29.2963V29.3028Z" fill="#6822BB"/>
<path d="M41.6991 27.4178C37.4141 23.1696 33.1961 18.9906 28.9717 14.8029C33.2221 10.5979 37.4487 6.41458 41.7143 2.19012C41.8009 2.62296 41.9827 3.12072 41.9848 3.61847C42.0021 11.0502 42.0021 18.4841 41.9848 25.9159C41.9848 26.4137 41.8009 26.9092 41.6991 27.4178Z" fill="#6822BB"/>
</g>
<defs>
<clipPath id="clip0_65_324">
<rect width="42" height="29.5366" fill="white"/>
</clipPath>
</defs>
</svg>
