<svg width="42" height="43" viewBox="0 0 42 43" fill="none" xmlns="http://www.w3.org/2000/svg">
<g clip-path="url(#clip0_65_331)">
<path d="M21.9087 -1.34055e-05C22.6556 0.150673 23.4221 0.240211 24.145 0.465149C28.421 1.79294 30.8975 4.75643 31.8322 9.07393C32.4742 12.0374 32.0025 14.8786 30.88 17.6521C29.6527 20.6833 28.0213 23.4896 26.1345 26.1452C24.846 27.9599 23.4571 29.7049 22.0834 31.4563C21.4217 32.2993 20.6093 32.2818 19.9214 31.4563C16.7941 27.711 13.9748 23.7604 11.8651 19.3381C10.9632 17.4447 10.1683 15.4945 9.98703 13.3914C9.60267 8.9014 10.7099 4.94861 14.4596 2.08339C15.9905 0.915024 17.7594 0.29044 19.6703 0.0742378C19.762 0.0633185 19.8493 0.0240091 19.9367 -0.00219727C20.594 -0.00219727 21.2492 -0.00219727 21.9065 -0.00219727L21.9087 -1.34055e-05ZM21.0199 14.7935C23.0727 14.7847 24.7106 13.1359 24.7041 11.0874C24.6975 9.0499 23.0247 7.38799 20.9893 7.40109C18.9474 7.41201 17.2986 9.07611 17.3051 11.118C17.3117 13.1621 18.9714 14.8044 21.0199 14.7956V14.7935Z" fill="#6822BB"/>
<path d="M0 40.4538C0.218386 39.9734 0.423669 39.4842 0.66171 39.0125C0.740329 38.8552 0.873544 38.6871 1.02423 38.6085C4.45944 36.8417 7.89902 35.0881 11.3364 33.3279C11.5417 33.2231 11.6749 33.1947 11.8649 33.3869C14.527 36.0599 17.1979 38.722 19.8666 41.3885C19.9321 41.454 19.9867 41.5261 20.0609 41.6156C19.6809 41.8602 19.3315 42.0262 18.8751 42.024C13.1359 42.0087 7.39455 42.0044 1.65537 42.024C0.888831 42.0262 0.331947 41.8166 0.00218386 41.109C0 40.8928 0 40.6722 0 40.4538Z" fill="#6822BB"/>
<path d="M38.3726 32.142C37.1715 32.7666 35.9617 33.3978 34.7518 34.0245C30.7641 36.0905 26.7742 38.152 22.7908 40.2311C22.4982 40.3839 22.3366 40.3752 22.0963 40.135C19.5041 37.5274 16.8966 34.933 14.2934 32.3364C14.1973 32.2403 14.1056 32.1399 13.9658 31.9935C14.7149 31.6092 15.4356 31.2401 16.1672 30.8645C16.831 31.6725 17.4665 32.474 18.1326 33.2493C19.7006 35.0728 22.2994 35.0815 23.8674 33.2646C24.5095 32.5199 25.1319 31.7555 25.7346 30.9781C27.8028 28.305 29.7071 25.5228 31.3406 22.5615C31.4105 22.437 31.5939 22.3059 31.7315 22.2994C32.2775 22.271 32.8256 22.2841 33.3716 22.295C33.9023 22.3059 34.2888 22.5615 34.4985 23.0441C35.7891 26.0403 37.0732 29.0388 38.3595 32.0372C38.3705 32.0612 38.3661 32.0896 38.3748 32.1464L38.3726 32.142Z" fill="#6822BB"/>
<path d="M14.68 28.8531C10.5613 30.9562 6.49275 33.0352 2.32812 35.1623C2.40456 34.957 2.44387 34.8347 2.4941 34.719C4.13636 30.895 5.78518 27.0755 7.41434 23.2472C7.69605 22.5833 8.14156 22.2557 8.86224 22.2819C9.4082 22.3016 10.0503 22.1269 10.4717 22.3583C10.8714 22.5789 11.0286 23.2253 11.3147 23.6708C12.3389 25.2672 13.3719 26.8593 14.4027 28.4513C14.4835 28.5758 14.573 28.6981 14.68 28.8531Z" fill="#6822BB"/>
<path d="M24.8608 41.9301C29.6894 39.4274 34.5157 36.9247 39.3595 34.4154C39.4075 34.5006 39.4468 34.5552 39.473 34.6164C40.2767 36.4836 41.0847 38.3486 41.8753 40.2223C42.2662 41.1505 41.7071 42.0109 40.7113 42.0109C35.4766 42.0175 30.2419 42.0131 25.0072 42.0131C24.9657 42.0131 24.9264 42.0065 24.8849 42.0022C24.8761 41.9781 24.8696 41.9563 24.8608 41.9323V41.9301Z" fill="#6822BB"/>
<path d="M21.0177 12.3279C20.3385 12.3322 19.7838 11.7972 19.7751 11.1267C19.7641 10.4454 20.3385 9.86447 21.0155 9.87103C21.6794 9.87758 22.2363 10.441 22.2384 11.1049C22.2384 11.7797 21.6969 12.3235 21.0177 12.3301V12.3279Z" fill="#6822BB"/>
</g>
<defs>
<clipPath id="clip0_65_331">
<rect width="42" height="42.0262" fill="white"/>
</clipPath>
</defs>
</svg>
