<svg width="56" height="55" viewBox="0 0 56 55" fill="none" xmlns="http://www.w3.org/2000/svg">
<path d="M35.3062 5.72915C33.0079 4.98562 30.5518 4.58331 28.0001 4.58331C15.1134 4.58331 4.66675 14.8434 4.66675 27.5C4.66675 40.1564 15.1134 50.4166 28.0001 50.4166C40.8866 50.4166 51.3334 40.1564 51.3334 27.5C51.3334 25.1047 50.9591 22.7953 50.2652 20.625" stroke="white" stroke-width="4" stroke-linecap="round"/>
<path d="M39.6666 27.5C39.6666 33.8282 34.4432 38.9583 27.9999 38.9583C21.5566 38.9583 16.3333 33.8282 16.3333 27.5C16.3333 21.1717 21.5566 16.0417 27.9999 16.0417" stroke="white" stroke-width="4" stroke-linecap="round" stroke-linejoin="round"/>
<path d="M45.5 10.3125L28 27.5M45.5 10.3125V4.58331M45.5 10.3125H51.3333" stroke="white" stroke-width="4" stroke-linecap="round"/>
</svg>
