<svg width="42" height="43" viewBox="0 0 42 43" fill="none" xmlns="http://www.w3.org/2000/svg">
<g clip-path="url(#clip0_65_318)">
<path d="M32.1491 42.046C29.8153 41.8021 27.7737 41.1921 25.7851 40.3773C21.7274 38.711 18.1253 36.3127 14.7903 33.4932C10.2009 29.615 6.32953 25.1268 3.37886 19.8768C1.82756 17.1103 0.649131 14.201 0.0760275 11.0593C-0.0965942 10.1133 0.00697878 9.30545 0.570876 8.49758C2.48352 5.76095 4.56649 3.17623 7.02923 0.911434C7.2801 0.67897 7.5586 0.471824 7.844 0.280789C8.44703 -0.121994 8.86362 -0.094375 9.4068 0.391267C9.65077 0.60762 9.88324 0.84929 10.072 1.11398C11.9869 3.82068 13.7615 6.61485 15.1839 9.61387C15.9296 11.1859 15.8536 11.4874 14.5601 12.6405C13.72 13.3885 12.8823 14.1389 12.0191 14.8593C11.6279 15.1861 11.5657 15.5083 11.7176 15.9917C12.7994 19.4303 14.6499 22.3971 17.1978 24.9289C19.5478 27.265 22.2913 28.9958 25.4307 30.0753C26.6137 30.4827 26.6275 30.4804 27.4837 29.5551C28.0131 28.982 28.5034 28.3721 29.0189 27.7829C29.3066 27.4537 29.6081 27.1361 29.9097 26.8185C30.3953 26.3075 30.9707 26.1625 31.6105 26.4756C32.8557 27.0878 34.1285 27.6563 35.3231 28.3606C37.0723 29.3894 38.7686 30.508 40.4695 31.6151C40.8838 31.8844 41.2636 32.2273 41.6019 32.591C42.0852 33.1065 42.1451 33.5599 41.7009 34.1031C40.992 34.9731 40.2508 35.827 39.4384 36.5958C37.4613 38.467 35.3691 40.2047 33.0491 41.6432C32.7291 41.8412 32.354 41.954 32.1514 42.0414L32.1491 42.046Z" fill="#6822BB"/>
<path d="M22.4754 2.9852V0.0736437C31.9834 -0.361363 42.0185 7.97281 41.9495 19.4832H38.9919C38.8883 14.972 37.3278 11.057 34.1309 7.85773C30.9339 4.65617 27.0212 3.08877 22.4731 2.9875L22.4754 2.9852Z" fill="#6822BB"/>
<path d="M34.4302 19.4878H31.491C31.4128 17.0435 30.5773 14.8961 28.8258 13.1492C27.0857 11.4137 24.9613 10.5598 22.4917 10.4931V7.54701C28.9063 7.36518 34.5982 12.9995 34.4302 19.4878Z" fill="#6822BB"/>
</g>
<defs>
<clipPath id="clip0_65_318">
<rect width="42" height="42.046" fill="white"/>
</clipPath>
</defs>
</svg>
