<svg width="42" height="46" viewBox="0 0 42 46" fill="none" xmlns="http://www.w3.org/2000/svg">
<g clip-path="url(#clip0_55_627)">
<path d="M7.74 25.8034C8.91891 24.7643 10.1993 24.4131 11.6458 24.8538C12.4951 25.113 13.1341 25.6589 13.668 26.372C14.2557 27.1567 14.835 27.9761 15.5516 28.6342C18.0349 30.9132 19.7978 33.6389 20.8824 36.8173C20.9027 36.877 20.929 36.9344 20.9564 36.9905C20.9612 37.0001 20.9827 37.0001 21.0401 37.0204C21.1476 36.7349 21.2562 36.447 21.3649 36.158C22.3826 33.4526 23.8888 31.0697 26.0077 29.0845C26.9012 28.2472 27.7265 27.3598 28.4038 26.3182C29.5827 24.5051 32.1017 24.1384 33.8265 25.4487C33.9627 25.5526 34.0965 25.6589 34.2338 25.7652C34.5085 24.4836 34.7414 23.2198 35.0544 21.974C35.5967 19.8169 36.9213 18.3107 39.0223 17.5618C39.6542 17.3372 40.3517 17.262 41.0266 17.2047C41.5915 17.1569 42.0108 17.5773 42.0012 18.1483C41.9523 21.089 41.9594 24.0345 41.7803 26.968C41.7026 28.2472 41.2487 29.5098 40.9191 30.7663C40.7614 31.3683 40.2227 31.637 39.7079 31.4746C39.1644 31.3038 38.9124 30.7771 39.125 30.1631C39.8644 28.0167 40.1212 25.8022 40.1033 23.5435C40.0937 22.2703 40.1009 20.9982 40.1009 19.7249C40.1009 19.5708 40.1009 19.4168 40.1009 19.2065C38.4645 19.6712 37.3847 20.6578 36.9703 22.2392C36.6095 23.62 36.3289 25.0282 36.1222 26.4401C35.7663 28.866 34.7665 30.961 33.1039 32.7443C32.4637 33.4299 31.8007 34.0952 31.1307 34.7533C30.6326 35.2431 30.064 35.2538 29.6615 34.8178C29.2769 34.4022 29.3462 33.8778 29.8013 33.3809C30.8094 32.2808 31.8366 31.1939 32.7778 30.0389C33.1087 29.6328 33.326 29.0571 33.3941 28.5327C33.504 27.6906 32.9128 26.9369 32.1209 26.6742C31.3206 26.409 30.4128 26.661 29.9768 27.3944C29.2399 28.6318 28.2174 29.6029 27.2022 30.5907C24.0787 33.6318 22.4782 37.3835 22.0422 41.6739C21.9813 42.2723 21.9693 42.8743 21.9311 43.5109C22.1186 43.5229 22.256 43.5408 22.3934 43.5408C24.5887 43.542 26.7853 43.5348 28.9807 43.5504C29.2984 43.5528 29.4525 43.4596 29.5851 43.167C30.709 40.6849 32.4732 38.6914 34.4572 36.8735C34.8788 36.4865 35.4199 36.5151 35.7866 36.8902C36.1676 37.2784 36.1652 37.8218 35.7543 38.2578C34.9576 39.1023 34.1168 39.9061 33.3571 40.7817C32.3406 41.9534 31.5356 43.2661 30.9993 44.7329C30.8201 45.2238 30.4713 45.4555 29.9422 45.4555C23.976 45.4519 18.0086 45.4519 12.0424 45.4555C11.5359 45.4555 11.1919 45.2333 11.0175 44.7603C10.2531 42.6892 8.94518 40.9847 7.43303 39.4116C6.15498 38.0822 4.8196 36.7982 3.64905 35.3804C1.43337 32.6929 0.315373 29.5241 0.114708 26.0793C-0.0381801 23.4623 0.0215418 20.8334 4.19402e-05 18.208C-0.00473581 17.5546 0.398984 17.1915 1.0607 17.1891C3.67652 17.1784 6.12512 19.0429 6.86328 21.6862C7.18697 22.846 7.38047 24.0428 7.6313 25.2229C7.66713 25.3925 7.6958 25.5645 7.74 25.8022V25.8034ZM1.85023 19.1862C1.90756 21.6074 1.87411 23.9341 2.03775 26.2466C2.23842 29.0595 3.13066 31.6872 4.91396 33.9029C6.05703 35.3219 7.37569 36.6035 8.64538 37.9174C10.148 39.4702 11.4905 41.134 12.3947 43.1132C12.5404 43.4309 12.6981 43.5551 13.0588 43.5516C15.2231 43.5324 17.3875 43.5432 19.5518 43.5408C19.7059 43.5408 19.8588 43.5265 20.1395 43.5133C19.9937 42.2616 19.9268 41.0373 19.6963 39.8452C18.9749 36.103 17.2943 32.8673 14.4671 30.2611C13.5545 29.4202 12.7017 28.5255 12.0591 27.4398C11.6709 26.7852 11.0235 26.4998 10.2626 26.5989C8.85321 26.7805 8.15327 28.2233 8.85082 29.4751C9.70126 30.9992 10.953 32.1805 12.1881 33.3773C12.6897 33.8635 12.7304 34.4296 12.3171 34.8453C11.9098 35.2538 11.3627 35.2395 10.8826 34.7641C10.1372 34.0247 9.38832 33.2866 8.68599 32.5078C7.2455 30.9132 6.33653 29.0559 5.96865 26.9262C5.69751 25.3615 5.42398 23.7932 5.03579 22.2547C4.63565 20.6685 3.54991 19.6807 1.85023 19.1886V19.1862Z" fill="#6822BB"/>
<path d="M21.022 1.2298e-05C27.8721 0.0107622 33.4322 5.59237 33.4143 12.4437C33.3976 19.2961 27.8124 24.8479 20.9587 24.8252C14.1349 24.8025 8.58314 19.2281 8.58912 12.403C8.59389 5.55056 14.1683 -0.0095432 21.022 1.2298e-05ZM18.8446 13.9224C19.4776 14.2377 20.1357 14.5232 20.7497 14.8839C21.6252 15.3975 22.5342 15.8872 23.3106 16.5298C24.462 17.4806 24.2721 19.0405 23.0024 19.8169C22.7993 19.9411 22.5628 20.0212 22.3837 20.1717C22.226 20.3031 22.0289 20.4989 22.0182 20.6757C21.9764 21.3816 22.0015 22.0911 22.0015 22.8257C22.1567 22.8257 22.2344 22.8353 22.3096 22.8245C26.2095 22.2607 28.9698 20.1705 30.6265 16.6087C30.6647 16.5274 30.685 16.4247 30.6743 16.3363C30.5644 15.4321 29.8668 14.651 28.9829 14.4169C28.4156 14.2664 27.8327 14.1469 27.2928 13.9248C26.213 13.4816 25.6337 12.4926 25.7651 11.3304C25.8237 10.8144 25.9957 10.3104 26.1175 9.80156C26.268 9.1709 26.1581 8.99293 25.5286 8.87468C24.8729 8.75285 24.1968 8.70149 23.565 8.50799C22.0038 8.02783 21.6156 6.23498 22.8507 5.16118C23.2819 4.78612 23.8325 4.49587 24.3772 4.3179C25.181 4.05513 26.0291 3.92732 26.833 3.74816C24.1467 1.61847 19.4131 1.29717 16.396 3.03986C17.0302 3.08047 17.6262 3.09838 18.2187 3.1593C20.07 3.34802 20.8918 4.96768 19.9195 6.55389C19.6233 7.03644 19.2112 7.44852 18.8481 7.89166C18.6929 8.08158 18.5304 8.26432 18.3572 8.46738C18.4886 8.5486 18.5663 8.60235 18.6487 8.64774C20.3054 9.54118 20.6099 10.4012 19.8264 12.1128C19.5433 12.7303 19.1802 13.3108 18.8434 13.9248L18.8446 13.9224ZM10.6961 10.6472C9.59125 16.187 13.6296 21.8749 19.0369 22.6776C18.4373 21.7806 17.8269 20.8895 17.2404 19.983C16.7447 19.2173 16.3088 18.4111 16.2717 17.477C16.2407 16.7006 16.292 15.9219 16.2944 15.1443C16.2944 14.9161 16.3374 14.614 16.2132 14.473C15.0677 13.1639 13.8518 11.9205 12.2656 11.1417C11.7818 10.904 11.2264 10.8109 10.6961 10.6484V10.6472ZM18.3954 10.6914C17.9786 10.4537 17.637 10.2853 17.3216 10.0751C16.3327 9.41457 16.1272 8.37302 16.7949 7.3888C16.9908 7.10094 17.2356 6.84653 17.4602 6.57897C17.7254 6.26245 18.0156 5.96384 18.2521 5.62701C18.5244 5.23881 18.4516 5.09787 17.9869 5.05726C17.5128 5.01545 17.0326 5.02262 16.5596 4.97126C15.8202 4.89243 15.0773 4.81957 14.3511 4.66907C14.0716 4.61173 13.9199 4.65115 13.7336 4.83271C12.6813 5.85514 11.8714 7.04003 11.3017 8.39093C11.2444 8.5271 11.2037 8.66924 11.1488 8.82571C13.8076 9.22704 15.5097 11.0187 17.3216 12.7721C17.6967 12.0447 18.0407 11.3782 18.3954 10.6902V10.6914ZM24.0714 6.5527C24.0774 6.59808 24.0834 6.64347 24.0893 6.69006C24.241 6.72469 24.3927 6.76292 24.5456 6.79158C25.1846 6.91222 25.8404 6.97553 26.4591 7.16305C27.5257 7.48555 28.111 8.31449 28.0644 9.42293C28.0429 9.9222 27.9068 10.4227 27.7789 10.9112C27.5198 11.8966 27.6284 12.1283 28.6139 12.366C29.6029 12.6049 30.6002 12.808 31.3742 13.6106C31.4136 13.4924 31.4447 13.4374 31.4506 13.3801C31.6955 10.5935 30.943 8.10069 29.2278 5.89695C29.1681 5.81931 29.0522 5.73928 28.9614 5.73809C27.5651 5.72376 26.1569 5.63417 24.8215 6.17764C24.5635 6.28275 24.3222 6.42728 24.0738 6.5527H24.0714ZM19.9506 20.6148C20.2026 20.094 20.3663 19.5076 20.7246 19.0835C21.0853 18.6571 21.6395 18.3932 22.2403 17.9643C20.8632 17.1808 19.5541 16.4367 18.2282 15.683C17.7409 17.8174 18.9891 19.1886 19.9518 20.6148H19.9506Z" fill="#FFBB39"/>
<path d="M37.9759 35.3254C37.4491 35.3123 37.0215 34.8536 37.0478 34.3281C37.0729 33.8204 37.5124 33.4108 38.0212 33.4239C38.548 33.437 38.9756 33.8969 38.9493 34.4212C38.923 34.9289 38.4823 35.3386 37.9759 35.3266V35.3254Z" fill="black"/>
</g>
<defs>
<clipPath id="clip0_55_627">
<rect width="42" height="45.4531" fill="white"/>
</clipPath>
</defs>
</svg>
