<svg width="54" height="54" viewBox="0 0 54 54" fill="none" xmlns="http://www.w3.org/2000/svg">
<path d="M20.5 27.25L25 31.75L34 22.75M47.5 27.25C47.5 29.9093 46.9762 32.5425 45.9586 34.9993C44.9409 37.4562 43.4493 39.6885 41.5689 41.5689C39.6885 43.4493 37.4562 44.9409 34.9993 45.9586C32.5425 46.9762 29.9093 47.5 27.25 47.5C24.5907 47.5 21.9575 46.9762 19.5007 45.9586C17.0438 44.9409 14.8115 43.4493 12.9311 41.5689C11.0507 39.6885 9.5591 37.4562 8.54144 34.9993C7.52378 32.5425 7 29.9093 7 27.25C7 21.8794 9.13348 16.7287 12.9311 12.9311C16.7287 9.13348 21.8794 7 27.25 7C32.6206 7 37.7713 9.13348 41.5689 12.9311C45.3665 16.7287 47.5 21.8794 47.5 27.25Z" stroke="white" stroke-width="2" stroke-linecap="round" stroke-linejoin="round"/>
</svg>
