<svg width="52" height="52" viewBox="0 0 52 52" fill="none" xmlns="http://www.w3.org/2000/svg">
<path d="M34.5165 42.915C34.3032 45.562 33.4026 46.5064 30.9865 46.6156C31.0094 47.9572 30.5507 49.0805 29.3422 49.7732C28.1378 50.4628 26.9386 50.3692 25.7373 49.5995C24.9292 50.7779 23.8392 51.4435 22.3748 51.1866C20.952 50.937 20.0669 50.0447 19.6498 48.6302C18.6576 49.0493 17.6747 49.0732 16.7231 48.5449C15.7808 48.0217 15.2035 47.2219 15.0288 46.1486C12.93 46.9567 10.4286 45.7742 10.2289 42.9223C8.04376 43.2156 6.34741 42.1589 5.90747 40.2025C5.68593 39.2176 5.8565 38.2857 6.41606 37.437C6.54815 37.2363 6.68023 37.0252 6.85184 36.8619C7.74838 36.0059 8.02815 34.9814 7.93975 33.75C7.88359 32.9575 7.66933 32.3875 6.91841 32.0245C6.84976 32.0828 6.76032 32.1535 6.67711 32.2315C6.00731 32.8462 5.12534 32.9564 4.4077 32.4156C3.1149 31.4421 1.84082 30.4416 0.596909 29.4067C-0.145696 28.7879 -0.187298 27.7769 0.428419 26.9386C2.11852 24.6339 3.81902 22.3364 5.5164 20.0357C6.65111 18.4975 7.78686 16.9603 8.92157 15.422C9.77026 14.2727 10.7656 14.1323 11.8837 15.0112C12.9664 15.863 14.0428 16.7242 15.1276 17.5718C15.7818 18.0835 16.099 18.7097 15.9035 19.5542C15.8317 19.8652 16.2904 20.3405 16.7366 20.3478C18.3206 20.3738 19.9057 20.3696 21.4907 20.355C21.6343 20.354 21.8059 20.225 21.9151 20.1085C23.3712 18.5547 25.1424 18.1719 27.1955 18.5245C29.8071 18.9728 32.4353 19.3181 35.0573 19.706C36.0755 19.8568 36.8192 19.2318 37.6179 18.7762C37.6897 18.7346 37.6814 18.5287 37.6866 18.3976C37.7178 17.6228 38.0579 17.0435 38.7734 16.7211C40.3252 16.0211 41.877 15.3201 43.4402 14.6451C44.4532 14.2083 45.4402 14.6087 45.8583 15.6373C47.8625 20.5589 49.8574 25.4836 51.8429 30.4124C52.2485 31.4203 51.8553 32.3636 50.8631 32.8119C49.3426 33.4993 47.8105 34.1587 46.2879 34.84C45.6899 35.1073 45.1293 35.0594 44.5551 34.7589C44.3607 34.6569 44.1038 34.607 43.8853 34.6299C43.1365 34.7079 42.3908 34.8275 41.6534 34.9305C41.4766 37.7241 40.6778 38.6112 38.0756 38.9014C38.1723 39.9456 37.9518 40.9129 37.2445 41.7221C36.5342 42.5344 35.6221 42.915 34.5165 42.915ZM19.7112 40.2046C20.6857 40.137 21.5209 40.3866 22.2188 41.0273C22.9312 41.6815 23.2151 42.526 23.2401 43.4673C24.6317 43.3279 25.7456 43.745 26.4882 44.9078C27.2235 46.0591 27.1299 47.2531 26.5007 48.4107C27.3848 49.1013 28.6068 48.9307 29.2194 48.0623C29.8227 47.2074 29.6427 46.1091 28.7535 45.4039C27.3234 44.2692 25.8767 43.1542 24.4414 42.0268C23.9921 41.6742 23.8985 41.2665 24.171 40.9264C24.4455 40.5832 24.8387 40.5853 25.3078 40.9451C25.8267 41.3435 26.3405 41.7491 26.8574 42.1516C27.9994 43.0409 29.1279 43.9457 30.2865 44.8131C31.4316 45.6702 32.948 45.0378 33.0853 43.6556C33.1571 42.9358 32.8118 42.4064 32.2356 41.9967C30.5507 40.8006 28.8689 39.5983 27.1913 38.3918C26.7878 38.1016 26.7035 37.7064 26.9417 37.3705C27.1788 37.0356 27.5751 36.9929 27.989 37.2748C28.3312 37.5067 28.663 37.7532 28.9989 37.9935C30.4696 39.045 31.935 40.1048 33.414 41.1448C34.1067 41.6326 34.8607 41.6857 35.6085 41.279C36.3366 40.8838 36.6954 40.2483 36.6819 39.4142C36.6694 38.6622 36.296 38.1183 35.7073 37.6846C33.8903 36.347 32.0786 35.0022 30.2668 33.6585C29.753 33.2778 29.6323 32.9044 29.8923 32.5383C30.1648 32.1545 30.5694 32.1587 31.1071 32.555C31.5232 32.8618 31.9371 33.1707 32.3521 33.4775C33.9725 34.6757 35.5877 35.88 37.2154 37.0688C37.9091 37.5753 38.6622 37.6117 39.3964 37.1728C40.0652 36.7735 40.3242 36.1401 40.269 35.3694C40.2493 35.101 40.1713 34.9554 39.8478 34.9149C38.5893 34.7589 37.4713 34.2482 36.4791 33.4598C35.9528 33.0417 35.4296 32.6205 34.9054 32.2003C32.7816 30.4988 30.6558 28.7993 28.5351 27.0936C27.6978 26.4207 26.8086 26.2938 25.8444 26.7961C25.5085 26.9709 25.1746 27.1508 24.8314 27.3089C23.0186 28.143 21.1881 28.1617 19.3097 27.4961C17.24 26.7618 17.0985 24.4851 18.4881 23.3483C19.0476 22.8907 19.4803 22.2791 19.9722 21.7352C19.3461 21.7352 18.6638 21.7321 17.9816 21.7352C16.9332 21.7404 15.8567 21.8652 15.06 20.9094C12.5815 24.2636 10.1572 27.5439 7.69845 30.8732C8.75412 31.4879 9.35215 32.3678 9.27831 33.6897C10.5597 32.5362 11.9211 32.1826 13.4167 32.8358C14.9165 33.491 15.5426 34.7578 15.5759 36.3481C17.5094 35.956 19.8193 37.359 19.7133 40.2036L19.7112 40.2046ZM38.2191 20.0565C37.8395 20.2666 37.5108 20.4455 37.1842 20.6296C36.4187 21.0633 35.595 21.1767 34.737 21.0508C31.8924 20.6348 29.0499 20.2105 26.2064 19.7934C25.2173 19.6478 24.2771 19.8568 23.5448 20.5142C22.0711 21.8361 20.6524 23.2214 19.2348 24.6058C18.771 25.0592 18.9134 25.7249 19.4844 26.0348C19.6498 26.1243 19.8287 26.1929 20.0066 26.2553C21.7497 26.8648 23.393 26.5954 24.9676 25.6947C26.5943 24.7639 28.1034 24.9407 29.5554 26.1222C32.1202 28.2096 34.7141 30.2627 37.2934 32.3324C38.4302 33.2445 39.7209 33.6959 41.177 33.5805C41.9633 33.5191 42.7423 33.3808 43.5765 33.2705C41.7834 28.8471 40.009 24.4706 38.2191 20.0565ZM45.4309 33.6803C45.6701 33.5898 45.8001 33.5472 45.9249 33.4931C47.3248 32.8774 48.7248 32.2617 50.1226 31.6408C50.6541 31.4047 50.7019 31.2757 50.4783 30.7224C48.5521 25.9589 46.6249 21.1964 44.6966 16.433C44.4428 15.8058 44.3263 15.7621 43.6877 16.0461C42.3211 16.6524 40.9555 17.2608 39.5899 17.8703C39.0002 18.1335 38.9669 18.2115 39.2071 18.8074C40.2701 21.4357 41.3362 24.0629 42.4012 26.6911C43.2727 28.8409 44.1391 30.9928 45.0221 33.1384C45.1074 33.3465 45.2977 33.5108 45.4298 33.6824L45.4309 33.6803ZM5.46544 31.4151C5.61521 31.2736 5.77954 31.1571 5.89291 31.0021C8.72708 27.1695 11.555 23.3327 14.3892 19.5001C14.6263 19.1787 14.6367 18.9281 14.3008 18.667C13.1733 17.7902 12.0511 16.9062 10.9362 16.0138C10.5867 15.734 10.3392 15.7902 10.0802 16.1428C7.25123 20.0004 4.41602 23.8528 1.57561 27.7031C1.32911 28.0369 1.36551 28.2855 1.68585 28.5362C2.81016 29.4171 3.92719 30.3074 5.05046 31.1894C5.15446 31.2705 5.28447 31.3183 5.46544 31.4151ZM7.1025 39.3549C7.18778 40.3138 7.75774 41.148 8.62307 41.4756C9.51336 41.8136 10.4567 41.5889 11.087 40.811C11.996 39.6888 12.8884 38.5509 13.7412 37.3861C14.4734 36.3876 14.2602 35.0501 13.321 34.346C12.3392 33.6096 11.0256 33.7739 10.2404 34.7599C9.37296 35.8499 8.50866 36.943 7.69013 38.0694C7.41868 38.4428 7.29387 38.9222 7.1025 39.3539V39.3549ZM18.4433 39.7803C18.3518 38.8692 17.7902 38.0933 16.928 37.7792C16.1386 37.4911 15.2691 37.7272 14.7064 38.4334C13.8275 39.5369 12.9591 40.6487 12.1156 41.7782C11.4125 42.7195 11.5644 43.8885 12.4359 44.5874C13.2815 45.2656 14.5275 45.1501 15.2587 44.2775C16.1635 43.1958 17.0507 42.0975 17.9004 40.9732C18.1573 40.6331 18.2655 40.1807 18.4423 39.7803H18.4433ZM18.2582 47.5579C18.2842 47.5995 18.3113 47.6411 18.3373 47.6827C18.7366 47.4466 19.2317 47.2926 19.5167 46.9598C20.2416 46.1101 20.8989 45.199 21.5344 44.2785C22.0784 43.4912 21.8849 42.4824 21.1527 41.9259C20.4132 41.3633 19.4096 41.4537 18.7845 42.187C18.0918 42.9993 17.423 43.8324 16.7699 44.6779C16.3195 45.2614 16.2602 45.9218 16.6201 46.5688C16.9706 47.198 17.5187 47.5506 18.2582 47.5579ZM25.6749 46.628C25.6239 45.8376 25.1497 45.1595 24.4331 44.9088C23.7019 44.653 22.9385 44.8724 22.4476 45.4913C22.0732 45.9624 21.6967 46.4325 21.3462 46.9203C20.7336 47.7732 20.9176 48.8548 21.7601 49.4726C22.6265 50.1081 23.7435 49.9614 24.3603 49.1003C24.7295 48.5844 25.0706 48.0446 25.3837 47.4923C25.5314 47.2323 25.5813 46.9172 25.6749 46.628Z" fill="#6822BB"/>
<path d="M26.0264 3.13899e-05C30.5559 0.0125121 34.2679 3.74842 34.2544 8.28205C34.2408 12.8146 30.4987 16.5329 25.9744 16.5121C21.4398 16.4902 17.733 12.7585 17.7444 8.22797C17.7569 3.69849 21.4918 -0.0124494 26.0264 3.13899e-05ZM25.9952 1.40412C22.1928 1.40724 19.1391 4.46918 19.1454 8.27269C19.1516 12.07 22.2219 15.1163 26.0295 15.1049C29.8091 15.0934 32.8482 12.045 32.8492 8.26333C32.8503 4.45358 29.7998 1.401 25.9952 1.40412Z" fill="#6822BB"/>
<path d="M24.7774 9.35855C25.9849 8.14376 27.1154 7.01009 28.2397 5.87018C28.5237 5.58208 28.8305 5.44687 29.2049 5.67049C29.6147 5.91594 29.6417 6.41517 29.2517 6.81352C28.5174 7.56444 27.7675 8.3008 27.0249 9.04341C26.4893 9.57904 25.9578 10.1199 25.416 10.6493C24.976 11.0788 24.6484 11.0809 24.2147 10.6586C23.7331 10.1896 23.2589 9.71425 22.7898 9.23374C22.4143 8.84996 22.3873 8.45161 22.6993 8.15104C23.0113 7.84942 23.3837 7.89102 23.7841 8.27688C23.9578 8.44433 24.1315 8.61178 24.2948 8.78859C24.4466 8.95292 24.5849 9.12973 24.7784 9.35751L24.7774 9.35855Z" fill="#FFBB39"/>
</svg>
