<svg width="52" height="42" viewBox="0 0 52 42" fill="none" xmlns="http://www.w3.org/2000/svg">
<path d="M48.9952 28.8333L42.1695 5.74887C41.5131 3.52733 39.4507 2 37.1068 2C34.1083 2 31.7131 4.46545 31.8379 7.42353L32.9999 30M49.3333 31.1667C49.3333 35.677 45.6769 39.3333 41.1666 39.3333C36.6563 39.3333 32.9999 35.677 32.9999 31.1667C32.9999 26.6563 36.6563 23 41.1666 23C45.6769 23 49.3333 26.6563 49.3333 31.1667Z" stroke="white" stroke-width="4" stroke-linecap="round" stroke-linejoin="round"/>
<path d="M21.3333 11.3333H30.6667M19 30H33" stroke="white" stroke-width="4" stroke-linecap="round" stroke-linejoin="round"/>
<path d="M3.00494 28.8333L9.83164 5.74887C10.4879 3.52733 12.5504 2 14.8942 2C17.8928 2 20.2879 4.46545 20.1631 7.42353L19.0011 30M19.0001 31.1667C19.0001 35.677 15.3437 39.3333 10.8334 39.3333C6.32308 39.3333 2.66675 35.677 2.66675 31.1667C2.66675 26.6563 6.32308 23 10.8334 23C15.3437 23 19.0001 26.6563 19.0001 31.1667Z" stroke="white" stroke-width="4" stroke-linecap="round" stroke-linejoin="round"/>
</svg>
