<svg width="54" height="54" viewBox="0 0 54 54" fill="none" xmlns="http://www.w3.org/2000/svg">
<path d="M27 8.4375C25.8811 8.4375 24.8081 8.88197 24.0169 9.67314C23.2257 10.4643 22.7812 11.5374 22.7812 12.6562C22.7812 13.7751 23.2257 14.8482 24.0169 15.6394C24.8081 16.4305 25.8811 16.875 27 16.875C28.1189 16.875 29.1919 16.4305 29.9831 15.6394C30.7743 14.8482 31.2188 13.7751 31.2188 12.6562C31.2188 11.5374 30.7743 10.4643 29.9831 9.67314C29.1919 8.88197 28.1189 8.4375 27 8.4375ZM19.4062 12.6562C19.4062 10.6423 20.2063 8.71076 21.6304 7.28666C23.0545 5.86255 24.986 5.0625 27 5.0625C29.014 5.0625 30.9455 5.86255 32.3696 7.28666C33.7937 8.71076 34.5938 10.6423 34.5938 12.6562C34.5938 14.6702 33.7937 16.6017 32.3696 18.0258C30.9455 19.4499 29.014 20.25 27 20.25C24.986 20.25 23.0545 19.4499 21.6304 18.0258C20.2063 16.6017 19.4062 14.6702 19.4062 12.6562ZM10.125 13.5C9.22989 13.5 8.37145 13.8556 7.73851 14.4885C7.10558 15.1215 6.75 15.9799 6.75 16.875C6.75 17.7701 7.10558 18.6285 7.73851 19.2615C8.37145 19.8944 9.22989 20.25 10.125 20.25C11.0201 20.25 11.8786 19.8944 12.5115 19.2615C13.1444 18.6285 13.5 17.7701 13.5 16.875C13.5 15.9799 13.1444 15.1215 12.5115 14.4885C11.8786 13.8556 11.0201 13.5 10.125 13.5ZM3.375 16.875C3.375 15.0848 4.08616 13.3679 5.35203 12.102C6.6179 10.8362 8.33479 10.125 10.125 10.125C11.9152 10.125 13.6321 10.8362 14.898 12.102C16.1638 13.3679 16.875 15.0848 16.875 16.875C16.875 18.6652 16.1638 20.3821 14.898 21.648C13.6321 22.9138 11.9152 23.625 10.125 23.625C8.33479 23.625 6.6179 22.9138 5.35203 21.648C4.08616 20.3821 3.375 18.6652 3.375 16.875ZM40.5 16.875C40.5 15.9799 40.8556 15.1215 41.4885 14.4885C42.1215 13.8556 42.9799 13.5 43.875 13.5C44.7701 13.5 45.6285 13.8556 46.2615 14.4885C46.8944 15.1215 47.25 15.9799 47.25 16.875C47.25 17.7701 46.8944 18.6285 46.2615 19.2615C45.6285 19.8944 44.7701 20.25 43.875 20.25C42.9799 20.25 42.1215 19.8944 41.4885 19.2615C40.8556 18.6285 40.5 17.7701 40.5 16.875ZM43.875 10.125C42.0848 10.125 40.3679 10.8362 39.102 12.102C37.8362 13.3679 37.125 15.0848 37.125 16.875C37.125 18.6652 37.8362 20.3821 39.102 21.648C40.3679 22.9138 42.0848 23.625 43.875 23.625C45.6652 23.625 47.3821 22.9138 48.648 21.648C49.9138 20.3821 50.625 18.6652 50.625 16.875C50.625 15.0848 49.9138 13.3679 48.648 12.102C47.3821 10.8362 45.6652 10.125 43.875 10.125ZM14.3438 27.8438C14.3438 27.468 14.3736 27.1018 14.4332 26.7452L6.50194 28.8697C5.42137 29.1596 4.50018 29.8668 3.941 30.8358C3.38181 31.8048 3.23042 32.9563 3.52012 34.0369L5.049 39.7406C5.41804 41.1187 6.07415 42.4033 6.97433 43.5101C7.87451 44.6169 8.99843 45.521 10.2724 46.1631C11.5464 46.8052 12.9418 47.1708 14.3669 47.236C15.7921 47.3012 17.215 47.0644 18.5422 46.5412C17.63 45.7224 16.8416 44.7754 16.2017 43.7299C14.5141 44.0803 12.7565 43.772 11.289 42.868C9.8215 41.9641 8.75541 40.533 8.30925 38.8682L6.78038 33.1644C6.75152 33.0574 6.74405 32.9457 6.75837 32.8358C6.7727 32.7259 6.80854 32.6198 6.86387 32.5238C6.91919 32.4277 6.9929 32.3435 7.08078 32.2759C7.16867 32.2084 7.269 32.1588 7.37606 32.13L14.3438 30.2636V27.8438ZM36.5462 46.9007C36.1763 46.8021 35.8124 46.6827 35.4561 46.5429C36.3689 45.7242 37.1579 44.7772 37.7983 43.7316C39.4856 44.081 41.2426 43.7719 42.7094 42.8677C44.1761 41.9635 45.2416 40.5326 45.6874 38.8682L47.2146 33.1628C47.2723 32.9468 47.242 32.7168 47.1304 32.5232C47.0187 32.3295 46.8347 32.1881 46.6189 32.13L39.6562 30.2636V27.8438C39.6562 27.4702 39.6264 27.1046 39.5668 26.7469L47.493 28.8697C48.5736 29.1596 49.4948 29.8668 50.0539 30.8358C50.6131 31.8048 50.7645 32.9563 50.4748 34.0369L48.9459 39.7406C48.251 42.3344 46.5543 44.5459 44.2289 45.8886C41.9035 47.2314 39.14 47.5954 36.5462 46.9007ZM21.0938 23.625C19.9749 23.625 18.9018 24.0695 18.1106 24.8606C17.3195 25.6518 16.875 26.7249 16.875 27.8438V37.125C16.875 39.8103 17.9417 42.3857 19.8405 44.2845C21.7393 46.1833 24.3147 47.25 27 47.25C29.6853 47.25 32.2607 46.1833 34.1595 44.2845C36.0583 42.3857 37.125 39.8103 37.125 37.125V27.8438C37.125 26.7249 36.6805 25.6518 35.8894 24.8606C35.0982 24.0695 34.0251 23.625 32.9062 23.625H21.0938ZM20.25 27.8438C20.25 27.62 20.3389 27.4054 20.4971 27.2471C20.6554 27.0889 20.87 27 21.0938 27H32.9062C33.13 27 33.3446 27.0889 33.5029 27.2471C33.6611 27.4054 33.75 27.62 33.75 27.8438V37.125C33.75 38.9152 33.0388 40.6321 31.773 41.898C30.5071 43.1638 28.7902 43.875 27 43.875C25.2098 43.875 23.4929 43.1638 22.227 41.898C20.9612 40.6321 20.25 38.9152 20.25 37.125V27.8438Z" fill="#FF5F5F"/>
</svg>
